# xmcd CD database file
# Copyright (C) 1993-1998 Ti Kan
# 
# Track frame offsets:
#     150
#     14587
#     29115
#     41055
#     55165
#     65665
#     76295
#     87182
#     98787
#     113150
#     127670
#     141077
# 
# Disc length: 2080 seconds
# 
# Revision: 1
# Processed by: cddbd v1.4b41PL1 Copyright (c) Steve Scherf et al.
# Submitted via: DiscPlay 4.0.4
# 
DISCID=9f081e0c
DTITLE=Slim Dusty - Slim Dusty Sings Stan Coster
DYEAR=1900
DGENRE=
TTITLE0=Three Rivers Hotel
TTITLE1=The Birdsville Track
TTITLE2=Whoa Bullocks, Whoa
TTITLE3=The Battle with the Roan
TTITLE4=Itching Feet
TTITLE5=Cobb and Co. Twitch
TTITLE6=Old Riders in the Grandstand
TTITLE7=Claypan Boogie
TTITLE8=Catching Yellowbelly
TTITLE9=Some Things a Man Can't Fight
TTITLE10=By a Fire of Gidgee Coal
TTITLE11=Australian Bushmen
EXTD=
EXTT0=
EXTT1=
EXTT2=
EXTT3=
EXTT4=
EXTT5=
EXTT6=
EXTT7=
EXTT8=
EXTT9=
EXTT10=
EXTT11=
PLAYORDER=
